<svg enable-background="new 0 0 24 24" height="512" viewBox="0 0 24 24" width="512" xmlns="http://www.w3.org/2000/svg"><g id="color"><g><path d="m19 7.165v2.331c-.171.117-.324.243-.459.387l-1.557 1.656-5.112-1.089c-.171-.036-.351-.054-.522-.054-.657 0-1.269.252-1.728.72-.558.549-.828 1.323-.729 2.115.099.783.549 1.476 1.314 1.926l2.331 1.233-.234.261-.09-.036c-.333-.144-.675-.216-1.026-.216-.684 0-1.323.261-1.8.747-.522.513-.783 1.233-.729 1.962.009.072.018.144.027.216h-6.786c-.495 0-.9-.405-.9-.9v-11.259z" fill="#ffb74d"/></g><g><path d="m19 6.162h-18l2.717-5.346c.154-.301.464-.492.803-.492h10.737c.328 0 .63.179.789.466z" fill="#ffa726"/></g><g><path d="m14.203 23.446c-.027 0-.054-.001-.081-.003-.305-.024-.583-.179-.763-.426l-.941-1.29-1.404-1.04c-.246-.182-.4-.46-.423-.764s.087-.602.303-.818c.316-.317.786-.407 1.198-.227l.871.381 3.161-3.34-3.501-1.853c-.316-.189-.503-.479-.544-.812-.04-.333.072-.659.309-.895.238-.239.579-.339.909-.267l5.279 1.118 1.868-1.984c.255-.271.671-.429 1.141-.436.515-.015.931.146 1.205.421.275.275.428.715.421 1.206-.007.47-.165.886-.435 1.141v.001l-1.99 1.875 1.215 5.339c.078.332-.021.679-.265.924-.235.236-.562.35-.89.309-.331-.039-.621-.224-.795-.508l-1.96-3.622-3.302 3.194.381.872c.18.411.09.881-.227 1.198-.198.197-.464.306-.74.306zm6.611-2.402c0 .001 0 .002.001.003zm-.083-5.56c-.001.001-.001.001 0 0zm.036-.126v.002c.001 0 0-.001 0-.002zm-7.727-2.078h.003zm5.483-.015s0 .001 0 0zm.121-.041h.002c-.001.001-.002.001-.002 0zm3.714-.108h.008z" fill="#607d8b"/></g></g><g id="reg"><g><path d="m8.5 20h-6.75c-.965 0-1.75-.785-1.75-1.75v-11.5c0-.414.336-.75.75-.75h18.5c.414 0 .75.336.75.75v2.5c0 .414-.336.75-.75.75s-.75-.336-.75-.75v-1.75h-17v10.75c0 .138.112.25.25.25h6.75c.414 0 .75.336.75.75s-.336.75-.75.75z"/></g><g><path d="m.749 7.5c-.114 0-.23-.026-.339-.082-.369-.188-.516-.639-.328-1.008l2.776-5.454c.3-.59.898-.956 1.559-.956h10.938c.638 0 1.226.347 1.533.906l3.02 5.482c.199.363.067.819-.295 1.019-.366.201-.819.068-1.02-.295l-3.02-5.482c-.044-.081-.128-.13-.219-.13h-10.937c-.094 0-.18.052-.223.137l-2.776 5.453c-.132.261-.396.41-.669.41z"/></g><g><path d="m10 7.5c-.414 0-.75-.336-.75-.75v-6c0-.414.336-.75.75-.75s.75.336.75.75v6c0 .414-.336.75-.75.75z"/></g><g><path d="m14.464 24c-.033 0-.066-.001-.1-.004-.376-.029-.72-.22-.942-.525l-1.162-1.593-1.733-1.284c-.304-.224-.494-.568-.522-.943s.108-.744.375-1.01c.391-.393.974-.5 1.478-.279l1.075.47 2.319-2.5-4.322-2.288c-.391-.234-.622-.592-.672-1.002-.051-.411.089-.813.381-1.105.296-.295.718-.418 1.123-.33l6.518 1.38 2.306-2.449c.313-.333.827-.53 1.407-.538.593-.027 1.149.18 1.488.52.34.339.529.882.521 1.49-.009.58-.205 1.093-.538 1.408l-2.456 2.314 1.499 6.593c.096.412-.026.839-.327 1.14-.289.291-.686.434-1.098.382-.408-.048-.767-.276-.982-.626l-2.42-4.473-2.494 2.319.47 1.077c.219.498.106 1.092-.279 1.478-.244.243-.572.378-.913.378zm6.578-1.341c.001 0 .001.001.001.002zm-3.321-5.512c.061 0 .121.004.183.013.397.054.745.281.956.623l1.853 3.424-1.188-5.228c-.109-.457.039-.949.388-1.276l2.516-2.372c.103-.139.095-.623-.012-.756-.126-.098-.615-.104-.747-.001l-2.36 2.507c-.317.34-.8.493-1.26.39l-5.18-1.097 3.303 1.748c.382.229.612.577.669.977s-.068.798-.343 1.094l-2.828 3.048c-.218.234-.559.304-.85.177l-.002-.001.303.223c.135.099.254.218.353.354l.108.149c-.106-.284-.032-.605.191-.813l3.042-2.828c.248-.23.571-.355.905-.355zm3.263-1.509.001.003c-.001 0-.001-.002-.001-.003zm-9.539-2.564h.003zm6.918-.069h.002c-.001.001-.001.001-.002 0zm4.584-.133h.01z"/></g></g></svg>