<svg height="512" viewBox="0 0 512 512" width="512" xmlns="http://www.w3.org/2000/svg"><g id="filled_outline" data-name="filled outline"><path d="m140 440h232a12 12 0 0 1 12 12v36a0 0 0 0 1 0 0h-256a0 0 0 0 1 0 0v-36a12 12 0 0 1 12-12z" fill="#d18d28"/><path d="m328 24h-144a24 24 0 0 0 -24 24v80a24 24 0 0 0 24 24h88v32l48-32h8a24 24 0 0 0 24-24v-80a24 24 0 0 0 -24-24z" fill="#2cbff4"/><path d="m312.889 329.778-14.222-33.778h-85.334l-14.222 33.778c-35.811 26.859-56.889 65.457-56.889 110.222h227.556c0-44.765-21.078-83.363-56.889-110.222z" fill="#ea9d2d"/><circle cx="256" cy="368" fill="#f7ba61" r="40"/><path d="m298.667 296 13.333 32h98a14 14 0 0 0 14-14v-28.955a69.048 69.048 0 0 0 -19.689-48.283 69.045 69.045 0 0 0 -49.356-20.762h-197.91a69.045 69.045 0 0 0 -49.356 20.762 69.048 69.048 0 0 0 -19.689 48.283v28.955a14 14 0 0 0 14 14h98l13.333-32z" fill="#ea9d2d"/><g fill="#c4f8ff"><circle cx="256" cy="88" r="14"/><circle cx="214" cy="88" r="14"/><circle cx="298" cy="88" r="14"/></g><path d="m88 296h125.33l-13.33 32h-112z" fill="#d18d28"/><path d="m424 296v32h-112l-13.33-32z" fill="#d18d28"/><path d="m213.49 296h85.029l4 9.15h-93.029z" fill="#c38325"/><path d="m256 320a48 48 0 1 0 48 48 48.055 48.055 0 0 0 -48-48zm0 80a32 32 0 1 1 32-32 32.036 32.036 0 0 1 -32 32z"/><path d="m432 314v-28.955a76.62 76.62 0 0 0 -21.971-53.877 77.492 77.492 0 0 0 -55.074-23.168h-197.91a77.5 77.5 0 0 0 -55.075 23.168 76.623 76.623 0 0 0 -21.97 53.877v28.955a22.025 22.025 0 0 0 22 22h77.376c-27.489 26.191-43.168 59.817-44.967 96.811a20.023 20.023 0 0 0 -14.409 19.189v36a8 8 0 0 0 8 8h256a8 8 0 0 0 8-8v-36a20.023 20.023 0 0 0 -14.409-19.189c-1.8-36.994-17.479-70.621-44.968-96.811h77.377a22.025 22.025 0 0 0 22-22zm-336-28.955a60.71 60.71 0 0 1 17.408-42.689 61.4 61.4 0 0 1 43.637-18.356h197.91a61.4 61.4 0 0 1 43.637 18.356 60.712 60.712 0 0 1 17.408 42.689v2.955h-320zm6 34.955a6.006 6.006 0 0 1 -6-6v-10h105.285l-6.737 16zm274 132v28h-240v-28a4 4 0 0 1 4-4h232a4 4 0 0 1 4 4zm-14.467-20h-211.066c2.32-37.77 21.09-71.556 53.444-95.822a8 8 0 0 0 2.573-3.3l12.183-28.878h74.666l12.183 28.882a8 8 0 0 0 2.573 3.3c32.354 24.262 51.124 58.048 53.444 95.818zm-44.081-112-6.737-16h105.285v10a6.006 6.006 0 0 1 -6 6z"/><circle cx="256" cy="88" r="14"/><circle cx="214" cy="88" r="14"/><circle cx="298" cy="88" r="14"/><path d="m268.225 191.053a8 8 0 0 0 8.212-.4l45.985-30.653h5.578a32.036 32.036 0 0 0 32-32v-80a32.036 32.036 0 0 0 -32-32h-144a32.036 32.036 0 0 0 -32 32v80a32.036 32.036 0 0 0 32 32h80v24a8 8 0 0 0 4.225 7.053zm-84.225-47.053a16.019 16.019 0 0 1 -16-16v-80a16.019 16.019 0 0 1 16-16h144a16.019 16.019 0 0 1 16 16v80a16.019 16.019 0 0 1 -16 16h-8a7.993 7.993 0 0 0 -4.438 1.344l-35.562 23.708v-17.052a8 8 0 0 0 -8-8z"/></g></svg>