<svg enable-background="new 0 0 24 24" height="512" viewBox="0 0 24 24" width="512" xmlns="http://www.w3.org/2000/svg"><g id="color"><g><path d="m20.212 14.225h-5.175c-.373 0-.675-.302-.675-.675v-3.6c0-.373.302-.675.675-.675h2.87c1.138 0 2.125.771 2.401 1.875l.559 2.237c.05.201.005.415-.123.579-.127.163-.324.259-.532.259z" fill="#eceff1"/></g><g><path d="m22.825 20.6h-7.65c-.373 0-.675-.302-.675-.675v-5.85c0-.373.302-.675.675-.675h5.175c.128 0 .254.036.362.105l2.475 1.575c.195.124.313.339.313.57v4.275c0 .373-.302.675-.675.675z" fill="#cfd8dc"/></g><g><path d="m14.25 20.25h-12.825c-.373 0-.675-.302-.675-.675v-12.15c0-.373.302-.675.675-.675h12.15c.373 0 .675.302.675.675z" fill="#ffc107"/></g><g><path d="m19 22.525c-1.117 0-2.025-.908-2.025-2.025s.908-2.025 2.025-2.025 2.025.908 2.025 2.025-.908 2.025-2.025 2.025z" fill="#546e7a"/></g><g><path d="m4.5 22.525c-1.117 0-2.025-.908-2.025-2.025s.908-2.025 2.025-2.025 2.025.908 2.025 2.025-.908 2.025-2.025 2.025z" fill="#607d8b"/></g></g><g id="reg"><g><path d="m14.75 21h-8.25c-.414 0-.75-.336-.75-.75s.336-.75.75-.75h7.5v-12h-12.5v12h1c.414 0 .75.336.75.75s-.336.75-.75.75h-1.75c-.414 0-.75-.336-.75-.75v-13.5c0-.414.336-.75.75-.75h14c.414 0 .75.336.75.75v13.5c0 .414-.336.75-.75.75z"/></g><g><path d="m14.75 15.5c-.414 0-.75-.336-.75-.75v-5c0-.414.336-.75.75-.75h3.188c1.264 0 2.361.856 2.668 2.083l.621 2.485c.101.401-.144.809-.546.909-.396.104-.809-.144-.909-.546l-.621-2.485c-.14-.557-.639-.946-1.213-.946h-2.438v4.25c0 .414-.336.75-.75.75z"/></g><g><path d="m23.25 21h-2.25c-.414 0-.75-.336-.75-.75s.336-.75.75-.75h1.5v-3.588l-2.219-1.412h-4.781v5h1.5c.414 0 .75.336.75.75s-.336.75-.75.75h-2.25c-.414 0-.75-.336-.75-.75v-6.5c0-.414.336-.75.75-.75h5.75c.143 0 .282.041.402.117l2.75 1.75c.217.138.348.376.348.633v4.75c0 .414-.336.75-.75.75z"/></g><g><path d="m19 23c-1.379 0-2.5-1.121-2.5-2.5s1.121-2.5 2.5-2.5 2.5 1.121 2.5 2.5-1.121 2.5-2.5 2.5zm0-3.5c-.552 0-1 .448-1 1s.448 1 1 1 1-.448 1-1-.448-1-1-1z"/></g><g><path d="m4.5 23c-1.379 0-2.5-1.121-2.5-2.5s1.121-2.5 2.5-2.5 2.5 1.121 2.5 2.5-1.121 2.5-2.5 2.5zm0-3.5c-.552 0-1 .448-1 1s.448 1 1 1 1-.448 1-1-.448-1-1-1z"/></g></g></svg>